<svg width="422" height="88" viewBox="0 0 422 88" fill="none" xmlns="http://www.w3.org/2000/svg">
<path d="M8.64146 3.53363H4.87231V6.39191H8.64146V10.6407L2.84984 12.7265L4.84852 14.7792L7.17057 13.6535L12.9622 18.6748V21.842H4.87231V18.6748H8.64146L4.84852 14.7792L0 17.1298V0.134644L8.64146 3.53363Z" fill="#3C3B80"/>
<path d="M10.8799 3.53363H14.6491V6.39191H10.8799V10.6407L16.6715 12.7265L14.6729 14.7792L12.3508 13.6535L6.55918 18.6748V21.842H14.6491V18.6748H10.8799L14.6729 14.7792L19.5214 17.1298V0.134644L10.8799 3.53363Z" fill="#3C3B80"/>
<path d="M38.5465 3.53363H34.7774V6.39191H38.5465V10.6407L32.7549 12.7265L34.7536 14.7792L37.0757 13.6535L42.8673 18.6748V21.842H34.7774V18.6748H38.5465L34.7536 14.7792L29.9051 17.1298V0.134644L38.5465 3.53363Z" fill="#3C3B80"/>
<path d="M40.785 3.53363H44.5541V6.39191H40.785V10.6407L46.5766 12.7265L44.5779 14.7792L42.2559 13.6535L36.4643 18.6748V21.842H44.5541V18.6748H40.785L44.5779 14.7792L49.4264 17.1298V0.134644L40.785 3.53363Z" fill="#3C3B80"/>
<path d="M68.4516 3.53363H64.6825V6.39191H68.4516V10.6407L62.66 12.7265L64.6587 14.7792L66.9807 13.6535L72.7723 18.6748V21.842H64.6825V18.6748H68.4516L64.6587 14.7792L59.8102 17.1298V0.134644L68.4516 3.53363Z" fill="#3C3B80"/>
<path d="M70.69 3.53363H74.4592V6.39191H70.69V10.6407L76.4817 12.7265L74.483 14.7792L72.1609 13.6535L66.3693 18.6748V21.842H74.4592V18.6748H70.69L74.483 14.7792L79.3315 17.1298V0.134644L70.69 3.53363Z" fill="#3C3B80"/>
<path d="M98.0798 3.53363H94.3107V6.39191H98.0798V10.6407L92.2882 12.7265L94.2869 14.7792L96.6089 13.6535L102.401 18.6748V21.842H94.3107V18.6748H98.0798L94.2869 14.7792L89.4383 17.1298V0.134644L98.0798 3.53363Z" fill="#3C3B80"/>
<path d="M100.318 3.53363H104.087V6.39191H100.318V10.6407L106.11 12.7265L104.111 14.7792L101.789 13.6535L95.9976 18.6748V21.842H104.087V18.6748H100.318L104.111 14.7792L108.96 17.1298V0.134644L100.318 3.53363Z" fill="#3C3B80"/>
<path d="M126.6 3.53363H122.831V6.39191H126.6V10.6407L120.809 12.7265L122.807 14.7792L125.13 13.6535L130.921 18.6748V21.842H122.831V18.6748H126.6L122.807 14.7792L117.959 17.1298V0.134644L126.6 3.53363Z" fill="#3C3B80"/>
<path d="M128.839 3.53363H132.608V6.39191H128.839V10.6407L134.63 12.7265L132.632 14.7792L130.31 13.6535L124.518 18.6748V21.842H132.608V18.6748H128.839L132.632 14.7792L137.48 17.1298V0.134644L128.839 3.53363Z" fill="#3C3B80"/>
<path d="M18.5522 67.0543H0.692247V72.2391H6.23023L0.692247 76.1105V86.1346H18.5522V79.3597H6.23023L18.5522 72.2391V67.0543Z" fill="#3C3B80"/>
<path d="M38.212 67.0543H20.3521V72.2391H25.89L20.3521 76.1105V86.1346H38.212V79.3597H25.89L38.212 72.2391V67.0543Z" fill="#3C3B80"/>
<path d="M58.4257 67.0543H40.5657V72.2391H46.1037L40.5657 76.1105V86.1346H58.4257V79.3597H46.1037L58.4257 72.2391V67.0543Z" fill="#3C3B80"/>
<path d="M78.7777 67.0543H60.9178V72.2391H66.4557L60.9178 76.1105V86.1346H78.7777V79.3597H66.4557L78.7777 72.2391V67.0543Z" fill="#3C3B80"/>
<path d="M98.9914 67.0543H81.1314V72.2391H86.6694L81.1314 76.1105V86.1346H98.9914V79.3597H86.6694L98.9914 72.2391V67.0543Z" fill="#3C3B80"/>
<path d="M118.513 67.0543H100.653V72.2391H106.191L100.653 76.1105V86.1346H118.513V79.3597H106.191L118.513 72.2391V67.0543Z" fill="#3C3B80"/>
<path d="M137.757 67.0543H119.897V72.2391H125.435L119.897 76.1105V86.1346H137.757V79.3597H125.435L137.757 72.2391V67.0543Z" fill="#3C3B80"/>
<path d="M0 34.0092V23.6395H20.0752V33.6636L27.2053 38.8485V45.0012L18.483 52.4674V64.4273H0V52.4674L10.6606 45.0012L0 34.0092Z" fill="#3C3B80"/>
<path d="M50.6033 34.0092V23.6394H30.5281V33.6635L23.398 38.8484V45.0012L32.1203 52.4674V64.4272H50.6033V52.4674L39.9427 45.0012L50.6033 34.0092Z" fill="#3C3B80"/>
<path d="M29.0744 34.1475V23.7777H49.1496V33.8018L56.2797 38.9867V45.1395L47.5574 52.6057V64.5655H29.0744V52.6057L39.735 45.1395L29.0744 34.1475Z" fill="#3C3B80"/>
<path d="M79.6776 34.1475V23.7777H59.6024V33.8019L52.4723 38.9867V45.1395L61.1946 52.6057V64.5655H79.6776V52.6057L69.017 45.1395L79.6776 34.1475Z" fill="#3C3B80"/>
<path d="M59.1179 34.1475V23.7777H79.1931V33.8018L86.3232 38.9867V45.1395L77.6009 52.6057V64.5655H59.1179V52.6057L69.7785 45.1395L59.1179 34.1475Z" fill="#3C3B80"/>
<path d="M109.583 34.1475V23.7777H89.5075V33.8019L82.3774 38.9867V45.1395L91.0997 52.6057V64.5655H109.583V52.6057L98.9221 45.1395L109.583 34.1475Z" fill="#3C3B80"/>
<path d="M86.9463 34.1475V23.7777H107.021V33.8018L114.152 38.9867V45.1395L105.429 52.6057V64.5655H86.9463V52.6057L97.6069 45.1395L86.9463 34.1475Z" fill="#3C3B80"/>
<path d="M137.55 34.1475V23.7777H117.474V33.8019L110.344 38.9867V45.1395L119.067 52.6057V64.5655H137.55V52.6057L126.889 45.1395L137.55 34.1475Z" fill="#3C3B80"/>
<path d="M150.763 3.53363H146.994V6.39191H150.763V10.6407L144.971 12.7265L146.97 14.7792L149.292 13.6535L155.084 18.6748V21.842H146.994V18.6748H150.763L146.97 14.7792L142.121 17.1298V0.134644L150.763 3.53363Z" fill="#3C3B80"/>
<path d="M153.001 3.53363H156.77V6.39191H153.001V10.6407L158.793 12.7265L156.794 14.7792L154.472 13.6535L148.681 18.6748V21.842H156.77V18.6748H153.001L156.794 14.7792L161.643 17.1298V0.134644L153.001 3.53363Z" fill="#3C3B80"/>
<path d="M180.668 3.53363H176.899V6.39191H180.668V10.6407L174.876 12.7265L176.875 14.7792L179.197 13.6535L184.989 18.6748V21.842H176.899V18.6748H180.668L176.875 14.7792L172.026 17.1298V0.134644L180.668 3.53363Z" fill="#3C3B80"/>
<path d="M182.906 3.53363H186.676V6.39191H182.906V10.6407L188.698 12.7265L186.699 14.7792L184.377 13.6535L178.586 18.6748V21.842H186.676V18.6748H182.906L186.699 14.7792L191.548 17.1298V0.134644L182.906 3.53363Z" fill="#3C3B80"/>
<path d="M210.573 3.53363H206.804V6.39191H210.573V10.6407L204.781 12.7265L206.78 14.7792L209.102 13.6535L214.894 18.6748V21.842H206.804V18.6748H210.573L206.78 14.7792L201.932 17.1298V0.134644L210.573 3.53363Z" fill="#3C3B80"/>
<path d="M212.811 3.53363H216.581V6.39191H212.811V10.6407L218.603 12.7265L216.604 14.7792L214.282 13.6535L208.491 18.6748V21.842H216.581V18.6748H212.811L216.604 14.7792L221.453 17.1298V0.134644L212.811 3.53363Z" fill="#3C3B80"/>
<path d="M240.201 3.53363H236.432V6.39191H240.201V10.6407L234.41 12.7265L236.408 14.7792L238.73 13.6535L244.522 18.6748V21.842H236.432V18.6748H240.201L236.408 14.7792L231.56 17.1298V0.134644L240.201 3.53363Z" fill="#3C3B80"/>
<path d="M242.44 3.53363H246.209V6.39191H242.44V10.6407L248.231 12.7265L246.233 14.7792L243.911 13.6535L238.119 18.6748V21.842H246.209V18.6748H242.44L246.233 14.7792L251.081 17.1298V0.134644L242.44 3.53363Z" fill="#3C3B80"/>
<path d="M268.722 3.53363H264.953V6.39191H268.722V10.6407L262.93 12.7265L264.929 14.7792L267.251 13.6535L273.043 18.6748V21.842H264.953V18.6748H268.722L264.929 14.7792L260.08 17.1298V0.134644L268.722 3.53363Z" fill="#3C3B80"/>
<path d="M270.96 3.53363H274.729V6.39191H270.96V10.6407L276.752 12.7265L274.753 14.7792L272.431 13.6535L266.639 18.6748V21.842H274.729V18.6748H270.96L274.753 14.7792L279.602 17.1298V0.134644L270.96 3.53363Z" fill="#3C3B80"/>
<path d="M160.674 67.0543H142.814V72.2391H148.352L142.814 76.1105V86.1346H160.674V79.3597H148.352L160.674 72.2391V67.0543Z" fill="#3C3B80"/>
<path d="M180.333 67.0543H162.473V72.2391H168.011L162.473 76.1105V86.1346H180.333V79.3597H168.011L180.333 72.2391V67.0543Z" fill="#3C3B80"/>
<path d="M200.547 67.0543H182.687V72.2391H188.225L182.687 76.1105V86.1346H200.547V79.3597H188.225L200.547 72.2391V67.0543Z" fill="#3C3B80"/>
<path d="M220.899 67.0543H203.039V72.2391H208.577L203.039 76.1105V86.1346H220.899V79.3597H208.577L220.899 72.2391V67.0543Z" fill="#3C3B80"/>
<path d="M241.113 67.0543H223.253V72.2391H228.791L223.253 76.1105V86.1346H241.113V79.3597H228.791L241.113 72.2391V67.0543Z" fill="#3C3B80"/>
<path d="M260.634 67.0543H242.774V72.2391H248.312L242.774 76.1105V86.1346H260.634V79.3597H248.312L260.634 72.2391V67.0543Z" fill="#3C3B80"/>
<path d="M279.879 67.0543H262.019V72.2391H267.557L262.019 76.1105V86.1346H279.879V79.3597H267.557L279.879 72.2391V67.0543Z" fill="#3C3B80"/>
<path d="M142.121 34.0092V23.6395H162.197V33.6636L169.327 38.8485V45.0012L160.604 52.4674V64.4273H142.121V52.4674L152.782 45.0012L142.121 34.0092Z" fill="#3C3B80"/>
<path d="M192.725 34.0092V23.6394H172.65V33.6635L165.519 38.8484V45.0012L174.242 52.4674V64.4272H192.725V52.4674L182.064 45.0012L192.725 34.0092Z" fill="#3C3B80"/>
<path d="M171.196 34.1475V23.7777H191.271V33.8018L198.401 38.9867V45.1395L189.679 52.6057V64.5655H171.196V52.6057L181.856 45.1395L171.196 34.1475Z" fill="#3C3B80"/>
<path d="M221.799 34.1475V23.7777H201.724V33.8019L194.594 38.9867V45.1395L203.316 52.6057V64.5655H221.799V52.6057L211.138 45.1395L221.799 34.1475Z" fill="#3C3B80"/>
<path d="M201.239 34.1475V23.7777H221.314V33.8018L228.445 38.9867V45.1395L219.722 52.6057V64.5655H201.239V52.6057L211.9 45.1395L201.239 34.1475Z" fill="#3C3B80"/>
<path d="M251.704 34.1475V23.7777H231.629V33.8019L224.499 38.9867V45.1395L233.221 52.6057V64.5655H251.704V52.6057L241.043 45.1395L251.704 34.1475Z" fill="#3C3B80"/>
<path d="M229.068 34.1475V23.7777H249.143V33.8018L256.273 38.9867V45.1395L247.551 52.6057V64.5655H229.068V52.6057L239.728 45.1395L229.068 34.1475Z" fill="#3C3B80"/>
<path d="M279.671 34.1475V23.7777H259.596V33.8019L252.466 38.9867V45.1395L261.188 52.6057V64.5655H279.671V52.6057L269.01 45.1395L279.671 34.1475Z" fill="#3C3B80"/>
<path d="M292.884 3.53363H289.115V6.39191H292.884V10.6407L287.093 12.7265L289.091 14.7792L291.413 13.6535L297.205 18.6748V21.842H289.115V18.6748H292.884L289.091 14.7792L284.243 17.1298V0.134644L292.884 3.53363Z" fill="#3C3B80"/>
<path d="M295.123 3.53363H298.892V6.39191H295.123V10.6407L300.914 12.7265L298.916 14.7792L296.594 13.6535L290.802 18.6748V21.842H298.892V18.6748H295.123L298.916 14.7792L303.764 17.1298V0.134644L295.123 3.53363Z" fill="#3C3B80"/>
<path d="M322.789 3.53363H319.02V6.39191H322.789V10.6407L316.998 12.7265L318.996 14.7792L321.318 13.6535L327.11 18.6748V21.842H319.02V18.6748H322.789L318.996 14.7792L314.148 17.1298V0.134644L322.789 3.53363Z" fill="#3C3B80"/>
<path d="M325.028 3.53363H328.797V6.39191H325.028V10.6407L330.819 12.7265L328.821 14.7792L326.499 13.6535L320.707 18.6748V21.842H328.797V18.6748H325.028L328.821 14.7792L333.669 17.1298V0.134644L325.028 3.53363Z" fill="#3C3B80"/>
<path d="M352.694 3.53363H348.925V6.39191H352.694V10.6407L346.903 12.7265L348.901 14.7792L351.224 13.6535L357.015 18.6748V21.842H348.925V18.6748H352.694L348.901 14.7792L344.053 17.1298V0.134644L352.694 3.53363Z" fill="#3C3B80"/>
<path d="M354.933 3.53363H358.702V6.39191H354.933V10.6407L360.724 12.7265L358.726 14.7792L356.404 13.6535L350.612 18.6748V21.842H358.702V18.6748H354.933L358.726 14.7792L363.574 17.1298V0.134644L354.933 3.53363Z" fill="#3C3B80"/>
<path d="M382.323 3.53363H378.553V6.39191H382.323V10.6407L376.531 12.7265L378.53 14.7792L380.852 13.6535L386.643 18.6748V21.842H378.553V18.6748H382.323L378.53 14.7792L373.681 17.1298V0.134644L382.323 3.53363Z" fill="#3C3B80"/>
<path d="M384.561 3.53363H388.33V6.39191H384.561V10.6407L390.353 12.7265L388.354 14.7792L386.032 13.6535L380.24 18.6748V21.842H388.33V18.6748H384.561L388.354 14.7792L393.203 17.1298V0.134644L384.561 3.53363Z" fill="#3C3B80"/>
<path d="M410.843 3.53363H407.074V6.39191H410.843V10.6407L405.052 12.7265L407.05 14.7792L409.372 13.6535L415.164 18.6748V21.842H407.074V18.6748H410.843L407.05 14.7792L402.202 17.1298V0.134644L410.843 3.53363Z" fill="#3C3B80"/>
<path d="M413.082 3.53363H416.851V6.39191H413.082V10.6407L418.873 12.7265L416.875 14.7792L414.552 13.6535L408.761 18.6748V21.842H416.851V18.6748H413.082L416.875 14.7792L421.723 17.1298V0.134644L413.082 3.53363Z" fill="#3C3B80"/>
<path d="M302.795 67.0543H284.935V72.2391H290.473L284.935 76.1105V86.1346H302.795V79.3597H290.473L302.795 72.2391V67.0543Z" fill="#3C3B80"/>
<path d="M322.455 67.0543H304.595V72.2391H310.133L304.595 76.1105V86.1346H322.455V79.3597H310.133L322.455 72.2391V67.0543Z" fill="#3C3B80"/>
<path d="M342.668 67.0543H324.808V72.2391H330.346L324.808 76.1105V86.1346H342.668V79.3597H330.346L342.668 72.2391V67.0543Z" fill="#3C3B80"/>
<path d="M363.021 67.0543H345.161V72.2391H350.699L345.161 76.1105V86.1346H363.021V79.3597H350.699L363.021 72.2391V67.0543Z" fill="#3C3B80"/>
<path d="M383.234 67.0543H365.374V72.2391H370.912L365.374 76.1105V86.1346H383.234V79.3597H370.912L383.234 72.2391V67.0543Z" fill="#3C3B80"/>
<path d="M402.756 67.0543H384.896V72.2391H390.434L384.896 76.1105V86.1346H402.756V79.3597H390.434L402.756 72.2391V67.0543Z" fill="#3C3B80"/>
<path d="M422 67.0543H404.14V72.2391H409.678L404.14 76.1105V86.1346H422V79.3597H409.678L422 72.2391V67.0543Z" fill="#3C3B80"/>
<path d="M284.243 34.0092V23.6395H304.318V33.6636L311.448 38.8485V45.0012L302.726 52.4674V64.4273H284.243V52.4674L294.903 45.0012L284.243 34.0092Z" fill="#3C3B80"/>
<path d="M334.846 34.0092V23.6394H314.771V33.6635L307.641 38.8484V45.0012L316.363 52.4674V64.4272H334.846V52.4674L324.185 45.0012L334.846 34.0092Z" fill="#3C3B80"/>
<path d="M313.317 34.1475V23.7777H333.392V33.8018L340.522 38.9867V45.1395L331.8 52.6057V64.5655H313.317V52.6057L323.978 45.1395L313.317 34.1475Z" fill="#3C3B80"/>
<path d="M363.92 34.1475V23.7777H343.845V33.8019L336.715 38.9867V45.1395L345.437 52.6057V64.5655H363.92V52.6057L353.26 45.1395L363.92 34.1475Z" fill="#3C3B80"/>
<path d="M343.361 34.1475V23.7777H363.436V33.8018L370.566 38.9867V45.1395L361.844 52.6057V64.5655H343.361V52.6057L354.021 45.1395L343.361 34.1475Z" fill="#3C3B80"/>
<path d="M393.825 34.1475V23.7777H373.75V33.8019L366.62 38.9867V45.1395L375.342 52.6057V64.5655H393.825V52.6057L383.165 45.1395L393.825 34.1475Z" fill="#3C3B80"/>
<path d="M371.189 34.1475V23.7777H391.264V33.8018L398.394 38.9867V45.1395L389.672 52.6057V64.5655H371.189V52.6057L381.85 45.1395L371.189 34.1475Z" fill="#3C3B80"/>
<path d="M421.792 34.1475V23.7777H401.717V33.8019L394.587 38.9867V45.1395L403.309 52.6057V64.5655H421.792V52.6057L411.132 45.1395L421.792 34.1475Z" fill="#3C3B80"/>
<path d="M333.058 87.4165C332.714 87.4165 332.424 87.3605 332.188 87.2485C331.952 87.1325 331.772 86.9825 331.648 86.7985C331.528 86.6145 331.464 86.4185 331.456 86.2105C331.452 86.1745 331.462 86.1465 331.486 86.1265C331.514 86.1025 331.546 86.0905 331.582 86.0905H332.14C332.184 86.0905 332.22 86.1005 332.248 86.1205C332.28 86.1365 332.304 86.1665 332.32 86.2105C332.36 86.3305 332.416 86.4285 332.488 86.5045C332.564 86.5805 332.65 86.6365 332.746 86.6725C332.846 86.7085 332.95 86.7265 333.058 86.7265C333.202 86.7265 333.332 86.6985 333.448 86.6425C333.568 86.5825 333.664 86.4945 333.736 86.3785C333.808 86.2625 333.844 86.1205 333.844 85.9525C333.844 85.8045 333.81 85.6765 333.742 85.5685C333.674 85.4605 333.58 85.3765 333.46 85.3165C333.344 85.2525 333.21 85.2205 333.058 85.2205C332.946 85.2205 332.854 85.2345 332.782 85.2625C332.71 85.2905 332.648 85.3225 332.596 85.3585C332.548 85.3945 332.504 85.4265 332.464 85.4545C332.428 85.4825 332.386 85.4965 332.338 85.4965H331.786C331.75 85.4965 331.718 85.4845 331.69 85.4605C331.666 85.4325 331.654 85.4005 331.654 85.3645L331.864 83.3125C331.868 83.2605 331.886 83.2205 331.918 83.1925C331.95 83.1645 331.988 83.1505 332.032 83.1505H334.288C334.328 83.1505 334.362 83.1645 334.39 83.1925C334.418 83.2205 334.432 83.2545 334.432 83.2945V83.6965C334.432 83.7365 334.418 83.7705 334.39 83.7985C334.362 83.8265 334.328 83.8405 334.288 83.8405H332.554L332.458 84.8185C332.53 84.7705 332.626 84.7245 332.746 84.6805C332.866 84.6365 333.032 84.6145 333.244 84.6145C333.436 84.6145 333.618 84.6465 333.79 84.7105C333.966 84.7705 334.122 84.8605 334.258 84.9805C334.394 85.0965 334.5 85.2385 334.576 85.4065C334.656 85.5705 334.696 85.7585 334.696 85.9705C334.696 86.2625 334.628 86.5165 334.492 86.7325C334.356 86.9485 334.166 87.1165 333.922 87.2365C333.678 87.3565 333.39 87.4165 333.058 87.4165ZM336.808 87.4105C336.528 87.4105 336.286 87.3765 336.082 87.3085C335.878 87.2405 335.708 87.1525 335.572 87.0445C335.44 86.9325 335.34 86.8125 335.272 86.6845C335.204 86.5525 335.168 86.4225 335.164 86.2945C335.164 86.2585 335.176 86.2305 335.2 86.2105C335.228 86.1865 335.26 86.1745 335.296 86.1745H335.836C335.876 86.1745 335.91 86.1825 335.938 86.1985C335.966 86.2145 335.99 86.2465 336.01 86.2945C336.046 86.4025 336.104 86.4885 336.184 86.5525C336.268 86.6165 336.364 86.6625 336.472 86.6905C336.58 86.7145 336.694 86.7265 336.814 86.7265C337.054 86.7265 337.244 86.6705 337.384 86.5585C337.528 86.4425 337.6 86.2785 337.6 86.0665C337.6 85.8545 337.534 85.7025 337.402 85.6105C337.27 85.5145 337.086 85.4665 336.85 85.4665H336.232C336.188 85.4665 336.152 85.4545 336.124 85.4305C336.096 85.4025 336.082 85.3665 336.082 85.3225V85.0705C336.082 85.0305 336.09 84.9965 336.106 84.9685C336.126 84.9365 336.146 84.9105 336.166 84.8905L337.24 83.8405H335.524C335.48 83.8405 335.444 83.8265 335.416 83.7985C335.392 83.7705 335.38 83.7365 335.38 83.6965V83.3005C335.38 83.2565 335.392 83.2205 335.416 83.1925C335.444 83.1645 335.48 83.1505 335.524 83.1505H338.098C338.142 83.1505 338.178 83.1645 338.206 83.1925C338.234 83.2205 338.248 83.2565 338.248 83.3005V83.6605C338.248 83.6965 338.24 83.7285 338.224 83.7565C338.208 83.7845 338.19 83.8085 338.17 83.8285L337.132 84.8965L337.204 84.9025C337.448 84.9225 337.664 84.9785 337.852 85.0705C338.044 85.1585 338.192 85.2885 338.296 85.4605C338.404 85.6325 338.458 85.8485 338.458 86.1085C338.458 86.3805 338.386 86.6145 338.242 86.8105C338.102 87.0025 337.908 87.1505 337.66 87.2545C337.412 87.3585 337.128 87.4105 336.808 87.4105ZM339.334 87.3505C339.294 87.3505 339.26 87.3365 339.232 87.3085C339.204 87.2805 339.19 87.2465 339.19 87.2065V83.2945C339.19 83.2545 339.204 83.2205 339.232 83.1925C339.26 83.1645 339.294 83.1505 339.334 83.1505H339.898C339.942 83.1505 339.976 83.1645 340 83.1925C340.028 83.2205 340.042 83.2545 340.042 83.2945V87.2065C340.042 87.2465 340.028 87.2805 340 87.3085C339.976 87.3365 339.942 87.3505 339.898 87.3505H339.334ZM342.339 87.4105C342.123 87.4105 341.917 87.3845 341.721 87.3325C341.529 87.2765 341.357 87.1925 341.205 87.0805C341.053 86.9685 340.931 86.8305 340.839 86.6665C340.751 86.5025 340.705 86.3085 340.701 86.0845C340.701 86.0485 340.713 86.0185 340.737 85.9945C340.761 85.9665 340.791 85.9525 340.827 85.9525H341.397C341.449 85.9525 341.487 85.9665 341.511 85.9945C341.539 86.0225 341.561 86.0605 341.577 86.1085C341.597 86.2525 341.643 86.3705 341.715 86.4625C341.787 86.5505 341.877 86.6165 341.985 86.6605C342.097 86.7005 342.221 86.7205 342.357 86.7205C342.609 86.7205 342.801 86.6385 342.933 86.4745C343.069 86.3105 343.137 86.0825 343.137 85.7905V83.8585H341.103C341.059 83.8585 341.023 83.8445 340.995 83.8165C340.971 83.7885 340.959 83.7545 340.959 83.7145V83.2945C340.959 83.2545 340.971 83.2205 340.995 83.1925C341.023 83.1645 341.059 83.1505 341.103 83.1505H343.845C343.889 83.1505 343.925 83.1645 343.953 83.1925C343.981 83.2205 343.995 83.2565 343.995 83.3005V85.8145C343.995 86.1465 343.925 86.4325 343.785 86.6725C343.649 86.9125 343.457 87.0965 343.209 87.2245C342.965 87.3485 342.675 87.4105 342.339 87.4105Z" fill="white" fill-opacity="0.2"/>
<path d="M184.586 87.3505C184.542 87.3505 184.506 87.3365 184.478 87.3085C184.45 87.2805 184.436 87.2465 184.436 87.2065V83.3005C184.436 83.2565 184.45 83.2205 184.478 83.1925C184.506 83.1645 184.542 83.1505 184.586 83.1505H185.06C185.116 83.1505 185.158 83.1665 185.186 83.1985C185.214 83.2265 185.232 83.2485 185.24 83.2645L186.398 85.4245L187.568 83.2645C187.576 83.2485 187.594 83.2265 187.622 83.1985C187.65 83.1665 187.692 83.1505 187.748 83.1505H188.216C188.26 83.1505 188.296 83.1645 188.324 83.1925C188.352 83.2205 188.366 83.2565 188.366 83.3005V87.2065C188.366 87.2465 188.352 87.2805 188.324 87.3085C188.296 87.3365 188.26 87.3505 188.216 87.3505H187.712C187.668 87.3505 187.632 87.3365 187.604 87.3085C187.58 87.2805 187.568 87.2465 187.568 87.2065V84.6085L186.728 86.2105C186.708 86.2465 186.682 86.2785 186.65 86.3065C186.618 86.3305 186.576 86.3425 186.524 86.3425H186.278C186.222 86.3425 186.178 86.3305 186.146 86.3065C186.118 86.2785 186.094 86.2465 186.074 86.2105L185.234 84.6085V87.2065C185.234 87.2465 185.22 87.2805 185.192 87.3085C185.164 87.3365 185.13 87.3505 185.09 87.3505H184.586ZM191.202 87.3505C191.162 87.3505 191.128 87.3365 191.1 87.3085C191.072 87.2805 191.058 87.2465 191.058 87.2065V86.4385H189.156C189.112 86.4385 189.076 86.4245 189.048 86.3965C189.024 86.3685 189.012 86.3345 189.012 86.2945V85.8865C189.012 85.8625 189.016 85.8345 189.024 85.8025C189.036 85.7665 189.054 85.7345 189.078 85.7065L190.848 83.2525C190.9 83.1845 190.974 83.1505 191.07 83.1505H191.724C191.764 83.1505 191.798 83.1645 191.826 83.1925C191.854 83.2205 191.868 83.2545 191.868 83.2945V85.7305H192.402C192.45 85.7305 192.486 85.7445 192.51 85.7725C192.538 85.7965 192.552 85.8305 192.552 85.8745V86.2945C192.552 86.3345 192.538 86.3685 192.51 86.3965C192.482 86.4245 192.448 86.4385 192.408 86.4385H191.868V87.2065C191.868 87.2465 191.854 87.2805 191.826 87.3085C191.798 87.3365 191.764 87.3505 191.724 87.3505H191.202ZM189.846 85.7545H191.076V84.0205L189.846 85.7545ZM194.582 87.4165C194.238 87.4165 193.948 87.3605 193.712 87.2485C193.476 87.1325 193.296 86.9825 193.172 86.7985C193.052 86.6145 192.988 86.4185 192.98 86.2105C192.976 86.1745 192.986 86.1465 193.01 86.1265C193.038 86.1025 193.07 86.0905 193.106 86.0905H193.664C193.708 86.0905 193.744 86.1005 193.772 86.1205C193.804 86.1365 193.828 86.1665 193.844 86.2105C193.884 86.3305 193.94 86.4285 194.012 86.5045C194.088 86.5805 194.174 86.6365 194.27 86.6725C194.37 86.7085 194.474 86.7265 194.582 86.7265C194.726 86.7265 194.856 86.6985 194.972 86.6425C195.092 86.5825 195.188 86.4945 195.26 86.3785C195.332 86.2625 195.368 86.1205 195.368 85.9525C195.368 85.8045 195.334 85.6765 195.266 85.5685C195.198 85.4605 195.104 85.3765 194.984 85.3165C194.868 85.2525 194.734 85.2205 194.582 85.2205C194.47 85.2205 194.378 85.2345 194.306 85.2625C194.234 85.2905 194.172 85.3225 194.12 85.3585C194.072 85.3945 194.028 85.4265 193.988 85.4545C193.952 85.4825 193.91 85.4965 193.862 85.4965H193.31C193.274 85.4965 193.242 85.4845 193.214 85.4605C193.19 85.4325 193.178 85.4005 193.178 85.3645L193.388 83.3125C193.392 83.2605 193.41 83.2205 193.442 83.1925C193.474 83.1645 193.512 83.1505 193.556 83.1505H195.812C195.852 83.1505 195.886 83.1645 195.914 83.1925C195.942 83.2205 195.956 83.2545 195.956 83.2945V83.6965C195.956 83.7365 195.942 83.7705 195.914 83.7985C195.886 83.8265 195.852 83.8405 195.812 83.8405H194.078L193.982 84.8185C194.054 84.7705 194.15 84.7245 194.27 84.6805C194.39 84.6365 194.556 84.6145 194.768 84.6145C194.96 84.6145 195.142 84.6465 195.314 84.7105C195.49 84.7705 195.646 84.8605 195.782 84.9805C195.918 85.0965 196.024 85.2385 196.1 85.4065C196.18 85.5705 196.22 85.7585 196.22 85.9705C196.22 86.2625 196.152 86.5165 196.016 86.7325C195.88 86.9485 195.69 87.1165 195.446 87.2365C195.202 87.3565 194.914 87.4165 194.582 87.4165ZM197.336 87.3505C197.3 87.3505 197.27 87.3385 197.246 87.3145C197.222 87.2865 197.21 87.2545 197.21 87.2185C197.21 87.2025 197.214 87.1845 197.222 87.1645L198.668 83.8645H196.784C196.74 83.8645 196.704 83.8505 196.676 83.8225C196.652 83.7945 196.64 83.7605 196.64 83.7205V83.3005C196.64 83.2565 196.652 83.2205 196.676 83.1925C196.704 83.1645 196.74 83.1505 196.784 83.1505H199.418C199.462 83.1505 199.496 83.1645 199.52 83.1925C199.548 83.2205 199.562 83.2565 199.562 83.3005V83.6725C199.562 83.7285 199.556 83.7765 199.544 83.8165C199.536 83.8525 199.524 83.8905 199.508 83.9305L198.074 87.2065C198.062 87.2345 198.04 87.2665 198.008 87.3025C197.98 87.3345 197.938 87.3505 197.882 87.3505H197.336ZM201.59 87.4105C201.31 87.4105 201.068 87.3765 200.864 87.3085C200.66 87.2405 200.49 87.1525 200.354 87.0445C200.222 86.9325 200.122 86.8125 200.054 86.6845C199.986 86.5525 199.95 86.4225 199.946 86.2945C199.946 86.2585 199.958 86.2305 199.982 86.2105C200.01 86.1865 200.042 86.1745 200.078 86.1745H200.618C200.658 86.1745 200.692 86.1825 200.72 86.1985C200.748 86.2145 200.772 86.2465 200.792 86.2945C200.828 86.4025 200.886 86.4885 200.966 86.5525C201.05 86.6165 201.146 86.6625 201.254 86.6905C201.362 86.7145 201.476 86.7265 201.596 86.7265C201.836 86.7265 202.026 86.6705 202.166 86.5585C202.31 86.4425 202.382 86.2785 202.382 86.0665C202.382 85.8545 202.316 85.7025 202.184 85.6105C202.052 85.5145 201.868 85.4665 201.632 85.4665H201.014C200.97 85.4665 200.934 85.4545 200.906 85.4305C200.878 85.4025 200.864 85.3665 200.864 85.3225V85.0705C200.864 85.0305 200.872 84.9965 200.888 84.9685C200.908 84.9365 200.928 84.9105 200.948 84.8905L202.022 83.8405H200.306C200.262 83.8405 200.226 83.8265 200.198 83.7985C200.174 83.7705 200.162 83.7365 200.162 83.6965V83.3005C200.162 83.2565 200.174 83.2205 200.198 83.1925C200.226 83.1645 200.262 83.1505 200.306 83.1505H202.88C202.924 83.1505 202.96 83.1645 202.988 83.1925C203.016 83.2205 203.03 83.2565 203.03 83.3005V83.6605C203.03 83.6965 203.022 83.7285 203.006 83.7565C202.99 83.7845 202.972 83.8085 202.952 83.8285L201.914 84.8965L201.986 84.9025C202.23 84.9225 202.446 84.9785 202.634 85.0705C202.826 85.1585 202.974 85.2885 203.078 85.4605C203.186 85.6325 203.24 85.8485 203.24 86.1085C203.24 86.3805 203.168 86.6145 203.024 86.8105C202.884 87.0025 202.69 87.1505 202.442 87.2545C202.194 87.3585 201.91 87.4105 201.59 87.4105ZM204.115 87.3505C204.075 87.3505 204.041 87.3365 204.013 87.3085C203.985 87.2805 203.971 87.2465 203.971 87.2065V83.3005C203.971 83.2565 203.985 83.2205 204.013 83.1925C204.041 83.1645 204.075 83.1505 204.115 83.1505H205.669C206.153 83.1505 206.535 83.2625 206.815 83.4865C207.095 83.7105 207.235 84.0365 207.235 84.4645C207.235 84.7605 207.161 85.0065 207.013 85.2025C206.869 85.3985 206.675 85.5405 206.431 85.6285L207.307 87.1585C207.319 87.1825 207.325 87.2045 207.325 87.2245C207.325 87.2605 207.311 87.2905 207.283 87.3145C207.259 87.3385 207.231 87.3505 207.199 87.3505H206.653C206.585 87.3505 206.533 87.3325 206.497 87.2965C206.461 87.2605 206.433 87.2245 206.413 87.1885L205.639 85.7665H204.805V87.2065C204.805 87.2465 204.791 87.2805 204.763 87.3085C204.739 87.3365 204.705 87.3505 204.661 87.3505H204.115ZM204.805 85.0885H205.651C205.895 85.0885 206.077 85.0345 206.197 84.9265C206.317 84.8145 206.377 84.6585 206.377 84.4585C206.377 84.2585 206.317 84.1025 206.197 83.9905C206.081 83.8745 205.899 83.8165 205.651 83.8165H204.805V85.0885ZM208.153 87.3505C208.113 87.3505 208.079 87.3365 208.051 87.3085C208.023 87.2805 208.009 87.2465 208.009 87.2065V83.2945C208.009 83.2545 208.023 83.2205 208.051 83.1925C208.079 83.1645 208.113 83.1505 208.153 83.1505H208.711C208.751 83.1505 208.785 83.1645 208.813 83.1925C208.841 83.2205 208.855 83.2545 208.855 83.2945V86.6365H210.757C210.801 86.6365 210.837 86.6505 210.865 86.6785C210.893 86.7065 210.907 86.7425 210.907 86.7865V87.2065C210.907 87.2465 210.893 87.2805 210.865 87.3085C210.837 87.3365 210.801 87.3505 210.757 87.3505H208.153ZM211.877 87.3505C211.837 87.3505 211.803 87.3365 211.775 87.3085C211.747 87.2805 211.733 87.2465 211.733 87.2065V83.8885H210.623C210.583 83.8885 210.549 83.8745 210.521 83.8465C210.493 83.8185 210.479 83.7845 210.479 83.7445V83.3005C210.479 83.2565 210.493 83.2205 210.521 83.1925C210.549 83.1645 210.583 83.1505 210.623 83.1505H213.683C213.727 83.1505 213.763 83.1645 213.791 83.1925C213.819 83.2205 213.833 83.2565 213.833 83.3005V83.7445C213.833 83.7845 213.819 83.8185 213.791 83.8465C213.763 83.8745 213.727 83.8885 213.683 83.8885H212.579V87.2065C212.579 87.2465 212.565 87.2805 212.537 87.3085C212.509 87.3365 212.473 87.3505 212.429 87.3505H211.877ZM214.586 87.3505C214.546 87.3505 214.512 87.3365 214.484 87.3085C214.456 87.2805 214.442 87.2465 214.442 87.2065V83.3005C214.442 83.2565 214.456 83.2205 214.484 83.1925C214.512 83.1645 214.546 83.1505 214.586 83.1505H215.048C215.104 83.1505 215.144 83.1645 215.168 83.1925C215.196 83.2165 215.214 83.2345 215.222 83.2465L216.95 85.9345V83.3005C216.95 83.2565 216.962 83.2205 216.986 83.1925C217.014 83.1645 217.05 83.1505 217.094 83.1505H217.598C217.642 83.1505 217.678 83.1645 217.706 83.1925C217.734 83.2205 217.748 83.2565 217.748 83.3005V87.2005C217.748 87.2445 217.734 87.2805 217.706 87.3085C217.678 87.3365 217.644 87.3505 217.604 87.3505H217.136C217.08 87.3505 217.04 87.3365 217.016 87.3085C216.992 87.2805 216.974 87.2625 216.962 87.2545L215.24 84.6265V87.2065C215.24 87.2465 215.226 87.2805 215.198 87.3085C215.17 87.3365 215.134 87.3505 215.09 87.3505H214.586ZM218.45 87.3505C218.414 87.3505 218.384 87.3385 218.36 87.3145C218.336 87.2905 218.324 87.2605 218.324 87.2245C218.324 87.2125 218.326 87.2005 218.33 87.1885C218.334 87.1765 218.338 87.1645 218.342 87.1525L219.686 85.2085L218.426 83.3485C218.414 83.3245 218.408 83.3005 218.408 83.2765C218.408 83.2405 218.42 83.2105 218.444 83.1865C218.468 83.1625 218.496 83.1505 218.528 83.1505H219.146C219.194 83.1505 219.232 83.1625 219.26 83.1865C219.288 83.2105 219.312 83.2365 219.332 83.2645L220.214 84.5605L221.102 83.2645C221.118 83.2365 221.14 83.2105 221.168 83.1865C221.2 83.1625 221.24 83.1505 221.288 83.1505H221.87C221.906 83.1505 221.936 83.1625 221.96 83.1865C221.984 83.2105 221.996 83.2405 221.996 83.2765C221.996 83.3005 221.988 83.3245 221.972 83.3485L220.718 85.2085L222.062 87.1525C222.07 87.1645 222.076 87.1765 222.08 87.1885C222.084 87.2005 222.086 87.2125 222.086 87.2245C222.086 87.2605 222.072 87.2905 222.044 87.3145C222.02 87.3385 221.992 87.3505 221.96 87.3505H221.324C221.276 87.3505 221.238 87.3385 221.21 87.3145C221.182 87.2905 221.16 87.2665 221.144 87.2425L220.184 85.8865L219.242 87.2425C219.226 87.2665 219.204 87.2905 219.176 87.3145C219.148 87.3385 219.108 87.3505 219.056 87.3505H218.45Z" fill="white" fill-opacity="0.2"/>
<path d="M22.8541 87.7448C22.8141 87.7448 22.7801 87.7308 22.7521 87.7028C22.7241 87.6748 22.7101 87.6408 22.7101 87.6008V84.2828H21.6001C21.5601 84.2828 21.5261 84.2688 21.4981 84.2408C21.4701 84.2128 21.4561 84.1788 21.4561 84.1388V83.6948C21.4561 83.6508 21.4701 83.6148 21.4981 83.5868C21.5261 83.5588 21.5601 83.5448 21.6001 83.5448H24.6601C24.7041 83.5448 24.7401 83.5588 24.7681 83.5868C24.7961 83.6148 24.8101 83.6508 24.8101 83.6948V84.1388C24.8101 84.1788 24.7961 84.2128 24.7681 84.2408C24.7401 84.2688 24.7041 84.2828 24.6601 84.2828H23.5561V87.6008C23.5561 87.6408 23.5421 87.6748 23.5141 87.7028C23.4861 87.7308 23.4501 87.7448 23.4061 87.7448H22.8541ZM25.5629 87.7448C25.5229 87.7448 25.4889 87.7328 25.4609 87.7088C25.4329 87.6808 25.4189 87.6448 25.4189 87.6008V83.6948C25.4189 83.6508 25.4329 83.6148 25.4609 83.5868C25.4889 83.5588 25.5229 83.5448 25.5629 83.5448H26.1089C26.1529 83.5448 26.1869 83.5588 26.2109 83.5868C26.2389 83.6148 26.2529 83.6508 26.2529 83.6948V85.2428H28.0229V83.6948C28.0229 83.6508 28.0369 83.6148 28.0649 83.5868C28.0929 83.5588 28.1269 83.5448 28.1669 83.5448H28.7069C28.7509 83.5448 28.7869 83.5588 28.8149 83.5868C28.8429 83.6148 28.8569 83.6508 28.8569 83.6948V87.6008C28.8569 87.6408 28.8429 87.6748 28.8149 87.7028C28.7869 87.7308 28.7509 87.7448 28.7069 87.7448H28.1669C28.1269 87.7448 28.0929 87.7308 28.0649 87.7028C28.0369 87.6748 28.0229 87.6408 28.0229 87.6008V85.9928H26.2529V87.6008C26.2529 87.6408 26.2389 87.6748 26.2109 87.7028C26.1869 87.7308 26.1529 87.7448 26.1089 87.7448H25.5629ZM29.934 87.7448C29.894 87.7448 29.86 87.7308 29.832 87.7028C29.804 87.6748 29.79 87.6408 29.79 87.6008V83.6888C29.79 83.6488 29.804 83.6148 29.832 83.5868C29.86 83.5588 29.894 83.5448 29.934 83.5448H30.498C30.542 83.5448 30.576 83.5588 30.6 83.5868C30.628 83.6148 30.642 83.6488 30.642 83.6888V87.6008C30.642 87.6408 30.628 87.6748 30.6 87.7028C30.576 87.7308 30.542 87.7448 30.498 87.7448H29.934ZM33.041 87.8048C32.669 87.8048 32.357 87.7508 32.105 87.6428C31.857 87.5308 31.667 87.3868 31.535 87.2108C31.407 87.0308 31.339 86.8428 31.331 86.6468C31.331 86.6108 31.343 86.5808 31.367 86.5568C31.391 86.5328 31.421 86.5208 31.457 86.5208H31.991C32.043 86.5208 32.081 86.5328 32.105 86.5568C32.133 86.5768 32.157 86.6028 32.177 86.6348C32.201 86.7108 32.247 86.7868 32.315 86.8628C32.383 86.9348 32.475 86.9948 32.591 87.0428C32.711 87.0908 32.861 87.1148 33.041 87.1148C33.329 87.1148 33.543 87.0668 33.683 86.9708C33.827 86.8748 33.899 86.7448 33.899 86.5808C33.899 86.4648 33.861 86.3728 33.785 86.3048C33.709 86.2328 33.591 86.1688 33.431 86.1128C33.275 86.0528 33.067 85.9908 32.807 85.9268C32.507 85.8548 32.255 85.7688 32.051 85.6688C31.851 85.5648 31.699 85.4348 31.595 85.2788C31.495 85.1228 31.445 84.9248 31.445 84.6848C31.445 84.4528 31.507 84.2468 31.631 84.0668C31.759 83.8868 31.939 83.7448 32.171 83.6408C32.407 83.5368 32.687 83.4848 33.011 83.4848C33.271 83.4848 33.501 83.5208 33.701 83.5928C33.901 83.6608 34.067 83.7528 34.199 83.8688C34.331 83.9808 34.431 84.1028 34.499 84.2348C34.571 84.3628 34.609 84.4888 34.613 84.6128C34.613 84.6448 34.601 84.6748 34.577 84.7028C34.557 84.7268 34.527 84.7388 34.487 84.7388H33.929C33.897 84.7388 33.865 84.7308 33.833 84.7148C33.801 84.6988 33.775 84.6688 33.755 84.6248C33.731 84.5008 33.653 84.3948 33.521 84.3068C33.389 84.2188 33.219 84.1748 33.011 84.1748C32.795 84.1748 32.621 84.2148 32.489 84.2948C32.357 84.3748 32.291 84.4988 32.291 84.6668C32.291 84.7788 32.323 84.8728 32.387 84.9488C32.455 85.0208 32.561 85.0848 32.705 85.1408C32.853 85.1968 33.047 85.2568 33.287 85.3208C33.627 85.3968 33.905 85.4848 34.121 85.5848C34.337 85.6848 34.495 85.8128 34.595 85.9688C34.695 86.1208 34.745 86.3148 34.745 86.5508C34.745 86.8148 34.673 87.0408 34.529 87.2288C34.389 87.4128 34.191 87.5548 33.935 87.6548C33.679 87.7548 33.381 87.8048 33.041 87.8048ZM35.5766 87.7448C35.5366 87.7448 35.5026 87.7308 35.4746 87.7028C35.4466 87.6748 35.4326 87.6408 35.4326 87.6008V83.6888C35.4326 83.6488 35.4466 83.6148 35.4746 83.5868C35.5026 83.5588 35.5366 83.5448 35.5766 83.5448H36.1406C36.1846 83.5448 36.2186 83.5588 36.2426 83.5868C36.2706 83.6148 36.2846 83.6488 36.2846 83.6888V87.6008C36.2846 87.6408 36.2706 87.6748 36.2426 87.7028C36.2186 87.7308 36.1846 87.7448 36.1406 87.7448H35.5766ZM38.6836 87.8048C38.3116 87.8048 37.9996 87.7508 37.7476 87.6428C37.4996 87.5308 37.3096 87.3868 37.1776 87.2108C37.0496 87.0308 36.9816 86.8428 36.9736 86.6468C36.9736 86.6108 36.9856 86.5808 37.0096 86.5568C37.0336 86.5328 37.0636 86.5208 37.0996 86.5208H37.6336C37.6856 86.5208 37.7236 86.5328 37.7476 86.5568C37.7756 86.5768 37.7996 86.6028 37.8196 86.6348C37.8436 86.7108 37.8896 86.7868 37.9576 86.8628C38.0256 86.9348 38.1176 86.9948 38.2336 87.0428C38.3536 87.0908 38.5036 87.1148 38.6836 87.1148C38.9716 87.1148 39.1856 87.0668 39.3256 86.9708C39.4696 86.8748 39.5416 86.7448 39.5416 86.5808C39.5416 86.4648 39.5036 86.3728 39.4276 86.3048C39.3516 86.2328 39.2336 86.1688 39.0736 86.1128C38.9176 86.0528 38.7096 85.9908 38.4496 85.9268C38.1496 85.8548 37.8976 85.7688 37.6936 85.6688C37.4936 85.5648 37.3416 85.4348 37.2376 85.2788C37.1376 85.1228 37.0876 84.9248 37.0876 84.6848C37.0876 84.4528 37.1496 84.2468 37.2736 84.0668C37.4016 83.8868 37.5816 83.7448 37.8136 83.6408C38.0496 83.5368 38.3296 83.4848 38.6536 83.4848C38.9136 83.4848 39.1436 83.5208 39.3436 83.5928C39.5436 83.6608 39.7096 83.7528 39.8416 83.8688C39.9736 83.9808 40.0736 84.1028 40.1416 84.2348C40.2136 84.3628 40.2516 84.4888 40.2556 84.6128C40.2556 84.6448 40.2436 84.6748 40.2196 84.7028C40.1996 84.7268 40.1696 84.7388 40.1296 84.7388H39.5716C39.5396 84.7388 39.5076 84.7308 39.4756 84.7148C39.4436 84.6988 39.4176 84.6688 39.3976 84.6248C39.3736 84.5008 39.2956 84.3948 39.1636 84.3068C39.0316 84.2188 38.8616 84.1748 38.6536 84.1748C38.4376 84.1748 38.2636 84.2148 38.1316 84.2948C37.9996 84.3748 37.9336 84.4988 37.9336 84.6668C37.9336 84.7788 37.9656 84.8728 38.0296 84.9488C38.0976 85.0208 38.2036 85.0848 38.3476 85.1408C38.4956 85.1968 38.6896 85.2568 38.9296 85.3208C39.2696 85.3968 39.5476 85.4848 39.7636 85.5848C39.9796 85.6848 40.1376 85.8128 40.2376 85.9688C40.3376 86.1208 40.3876 86.3148 40.3876 86.5508C40.3876 86.8148 40.3156 87.0408 40.1716 87.2288C40.0316 87.4128 39.8336 87.5548 39.5776 87.6548C39.3216 87.7548 39.0236 87.8048 38.6836 87.8048ZM42.4312 87.8048C42.2152 87.8048 42.0092 87.7788 41.8132 87.7268C41.6212 87.6708 41.4492 87.5868 41.2972 87.4748C41.1452 87.3628 41.0232 87.2248 40.9312 87.0608C40.8432 86.8968 40.7972 86.7028 40.7932 86.4788C40.7932 86.4428 40.8052 86.4128 40.8292 86.3888C40.8532 86.3608 40.8832 86.3468 40.9192 86.3468H41.4892C41.5412 86.3468 41.5792 86.3608 41.6032 86.3888C41.6312 86.4168 41.6532 86.4548 41.6692 86.5028C41.6892 86.6468 41.7352 86.7648 41.8072 86.8568C41.8792 86.9448 41.9692 87.0108 42.0772 87.0548C42.1892 87.0948 42.3132 87.1148 42.4492 87.1148C42.7012 87.1148 42.8932 87.0328 43.0252 86.8688C43.1612 86.7048 43.2292 86.4768 43.2292 86.1848V84.2528H41.1952C41.1512 84.2528 41.1152 84.2388 41.0872 84.2108C41.0632 84.1828 41.0512 84.1488 41.0512 84.1088V83.6888C41.0512 83.6488 41.0632 83.6148 41.0872 83.5868C41.1152 83.5588 41.1512 83.5448 41.1952 83.5448H43.9372C43.9812 83.5448 44.0172 83.5588 44.0452 83.5868C44.0732 83.6148 44.0872 83.6508 44.0872 83.6948V86.2088C44.0872 86.5408 44.0172 86.8268 43.8772 87.0668C43.7412 87.3068 43.5492 87.4908 43.3012 87.6188C43.0572 87.7428 42.7672 87.8048 42.4312 87.8048ZM46.6032 87.8048C46.2472 87.8048 45.9412 87.7468 45.6852 87.6308C45.4292 87.5108 45.2292 87.3288 45.0852 87.0848C44.9412 86.8368 44.8632 86.5288 44.8512 86.1608C44.8472 85.9888 44.8452 85.8188 44.8452 85.6508C44.8452 85.4828 44.8472 85.3108 44.8512 85.1348C44.8632 84.7708 44.9432 84.4668 45.0912 84.2228C45.2392 83.9788 45.4412 83.7948 45.6972 83.6708C45.9572 83.5468 46.2592 83.4848 46.6032 83.4848C46.9472 83.4848 47.2492 83.5468 47.5092 83.6708C47.7692 83.7948 47.9732 83.9788 48.1212 84.2228C48.2692 84.4668 48.3492 84.7708 48.3612 85.1348C48.3692 85.3108 48.3732 85.4828 48.3732 85.6508C48.3732 85.8188 48.3692 85.9888 48.3612 86.1608C48.3492 86.5288 48.2712 86.8368 48.1272 87.0848C47.9832 87.3288 47.7812 87.5108 47.5212 87.6308C47.2652 87.7468 46.9592 87.8048 46.6032 87.8048ZM46.6032 87.1148C46.8632 87.1148 47.0752 87.0388 47.2392 86.8868C47.4032 86.7308 47.4912 86.4788 47.5032 86.1308C47.5112 85.9548 47.5152 85.7928 47.5152 85.6448C47.5152 85.4928 47.5112 85.3308 47.5032 85.1588C47.4952 84.9268 47.4512 84.7388 47.3712 84.5948C47.2952 84.4468 47.1912 84.3408 47.0592 84.2768C46.9272 84.2088 46.7752 84.1748 46.6032 84.1748C46.4352 84.1748 46.2852 84.2088 46.1532 84.2768C46.0212 84.3408 45.9152 84.4468 45.8352 84.5948C45.7592 84.7388 45.7172 84.9268 45.7092 85.1588C45.7052 85.3308 45.7032 85.4928 45.7032 85.6448C45.7032 85.7928 45.7052 85.9548 45.7092 86.1308C45.7212 86.4788 45.8092 86.7308 45.9732 86.8868C46.1372 87.0388 46.3472 87.1148 46.6032 87.1148ZM50.6191 87.8048C50.2471 87.8048 49.9351 87.7508 49.6831 87.6428C49.4351 87.5308 49.2451 87.3868 49.1131 87.2108C48.9851 87.0308 48.9171 86.8428 48.9091 86.6468C48.9091 86.6108 48.9211 86.5808 48.9451 86.5568C48.9691 86.5328 48.9991 86.5208 49.0351 86.5208H49.5691C49.6211 86.5208 49.6591 86.5328 49.6831 86.5568C49.7111 86.5768 49.7351 86.6028 49.7551 86.6348C49.7791 86.7108 49.8251 86.7868 49.8931 86.8628C49.9611 86.9348 50.0531 86.9948 50.1691 87.0428C50.2891 87.0908 50.4391 87.1148 50.6191 87.1148C50.9071 87.1148 51.1211 87.0668 51.2611 86.9708C51.4051 86.8748 51.4771 86.7448 51.4771 86.5808C51.4771 86.4648 51.4391 86.3728 51.3631 86.3048C51.2871 86.2328 51.1691 86.1688 51.0091 86.1128C50.8531 86.0528 50.6451 85.9908 50.3851 85.9268C50.0851 85.8548 49.8331 85.7688 49.6291 85.6688C49.4291 85.5648 49.2771 85.4348 49.1731 85.2788C49.0731 85.1228 49.0231 84.9248 49.0231 84.6848C49.0231 84.4528 49.0851 84.2468 49.2091 84.0668C49.3371 83.8868 49.5171 83.7448 49.7491 83.6408C49.9851 83.5368 50.2651 83.4848 50.5891 83.4848C50.8491 83.4848 51.0791 83.5208 51.2791 83.5928C51.4791 83.6608 51.6451 83.7528 51.7771 83.8688C51.9091 83.9808 52.0091 84.1028 52.0771 84.2348C52.1491 84.3628 52.1871 84.4888 52.1911 84.6128C52.1911 84.6448 52.1791 84.6748 52.1551 84.7028C52.1351 84.7268 52.1051 84.7388 52.0651 84.7388H51.5071C51.4751 84.7388 51.4431 84.7308 51.4111 84.7148C51.3791 84.6988 51.3531 84.6688 51.3331 84.6248C51.3091 84.5008 51.2311 84.3948 51.0991 84.3068C50.9671 84.2188 50.7971 84.1748 50.5891 84.1748C50.3731 84.1748 50.1991 84.2148 50.0671 84.2948C49.9351 84.3748 49.8691 84.4988 49.8691 84.6668C49.8691 84.7788 49.9011 84.8728 49.9651 84.9488C50.0331 85.0208 50.1391 85.0848 50.2831 85.1408C50.4311 85.1968 50.6251 85.2568 50.8651 85.3208C51.2051 85.3968 51.4831 85.4848 51.6991 85.5848C51.9151 85.6848 52.0731 85.8128 52.1731 85.9688C52.2731 86.1208 52.3231 86.3148 52.3231 86.5508C52.3231 86.8148 52.2511 87.0408 52.1071 87.2288C51.9671 87.4128 51.7691 87.5548 51.5131 87.6548C51.2571 87.7548 50.9591 87.8048 50.6191 87.8048ZM53.1547 87.7448C53.1147 87.7448 53.0807 87.7328 53.0527 87.7088C53.0247 87.6808 53.0107 87.6448 53.0107 87.6008V83.6948C53.0107 83.6508 53.0247 83.6148 53.0527 83.5868C53.0807 83.5588 53.1147 83.5448 53.1547 83.5448H53.7007C53.7447 83.5448 53.7787 83.5588 53.8027 83.5868C53.8307 83.6148 53.8447 83.6508 53.8447 83.6948V85.2428H55.6147V83.6948C55.6147 83.6508 55.6287 83.6148 55.6567 83.5868C55.6847 83.5588 55.7187 83.5448 55.7587 83.5448H56.2987C56.3427 83.5448 56.3787 83.5588 56.4067 83.5868C56.4347 83.6148 56.4487 83.6508 56.4487 83.6948V87.6008C56.4487 87.6408 56.4347 87.6748 56.4067 87.7028C56.3787 87.7308 56.3427 87.7448 56.2987 87.7448H55.7587C55.7187 87.7448 55.6847 87.7308 55.6567 87.7028C55.6287 87.6748 55.6147 87.6408 55.6147 87.6008V85.9928H53.8447V87.6008C53.8447 87.6408 53.8307 87.6748 53.8027 87.7028C53.7787 87.7308 53.7447 87.7448 53.7007 87.7448H53.1547ZM59.0558 87.8048C58.7078 87.8048 58.4058 87.7468 58.1498 87.6308C57.8938 87.5108 57.6958 87.3288 57.5558 87.0848C57.4158 86.8368 57.3458 86.5208 57.3458 86.1368V83.6948C57.3458 83.6508 57.3598 83.6148 57.3878 83.5868C57.4158 83.5588 57.4498 83.5448 57.4898 83.5448H58.0358C58.0798 83.5448 58.1138 83.5588 58.1378 83.5868C58.1658 83.6148 58.1798 83.6508 58.1798 83.6948V86.1368C58.1798 86.4648 58.2578 86.7088 58.4138 86.8688C58.5698 87.0248 58.7838 87.1028 59.0558 87.1028C59.3278 87.1028 59.5398 87.0248 59.6918 86.8688C59.8478 86.7088 59.9258 86.4648 59.9258 86.1368V83.6948C59.9258 83.6508 59.9398 83.6148 59.9678 83.5868C59.9958 83.5588 60.0318 83.5448 60.0758 83.5448H60.6158C60.6598 83.5448 60.6938 83.5588 60.7178 83.5868C60.7458 83.6148 60.7598 83.6508 60.7598 83.6948V86.1368C60.7598 86.5208 60.6898 86.8368 60.5498 87.0848C60.4138 87.3288 60.2178 87.5108 59.9618 87.6308C59.7098 87.7468 59.4078 87.8048 59.0558 87.8048Z" fill="white" fill-opacity="0.2"/>
</svg>
