<svg width="152" height="25" viewBox="0 0 152 25" fill="none" xmlns="http://www.w3.org/2000/svg">
<path fill-rule="evenodd" clip-rule="evenodd" d="M0.0129024 24.8535H27.5073L3.68356 0.989868H0L0.0129024 24.8535Z" fill="white"/>
<path fill-rule="evenodd" clip-rule="evenodd" d="M10.6863 24.8536H27.5074L17.1019 14.4315C16.8374 14.5387 16.56 14.6588 16.2019 14.8601C15.6568 15.1685 14.873 15.6913 14.3505 16.1783C13.7312 16.7562 13.4344 17.3439 13.7312 18.214C13.8312 18.5062 13.9957 18.7724 14.157 18.9835C14.3182 19.1945 14.4795 19.3504 14.6505 19.5387C14.8214 19.727 14.9988 19.9413 15.1278 20.162C15.6794 21.1036 15.1762 21.9445 14.4666 22.6036C13.7247 23.2952 12.5442 24.0354 11.6314 24.477C11.3507 24.6133 11.1282 24.6978 10.8637 24.7919L10.6863 24.8536Z" fill="#212061"/>
<path fill-rule="evenodd" clip-rule="evenodd" d="M11.7539 24.8536H27.5074L17.576 14.9055C17.1341 15.1393 16.6341 15.5386 16.3019 15.886C15.789 16.425 15.4697 17.0224 15.8245 17.7497C15.8987 17.9023 15.989 18.0094 16.0987 18.1166C16.5148 18.5321 16.8309 18.5646 17.2696 18.8666C17.6341 19.1166 17.9566 19.4867 18.0179 19.9412C18.0759 20.3763 17.9114 20.7984 17.6502 21.1393C17.5212 21.3081 17.3631 21.4705 17.1825 21.6425C17.0018 21.8146 16.8019 21.9932 16.5341 22.1912C16.2664 22.3893 15.9342 22.6101 15.4858 22.8925C14.573 23.4705 13.6634 24.0191 12.6829 24.4672C12.3474 24.6166 11.9926 24.7594 11.7539 24.8536Z" fill="white"/>
<path fill-rule="evenodd" clip-rule="evenodd" d="M1.24194 6.5548L3.00308 7.35024L3.41918 5.85999L4.07396 7.82103L5.56093 8.47687L4.45457 8.95414L5.00614 10.6619L3.71593 9.26908L2.39346 9.79181L2.7902 8.23986L1.24194 6.5548Z" fill="#212061"/>
<path fill-rule="evenodd" clip-rule="evenodd" d="M10.8895 10.8827L11.1314 9.90869L11.3636 11.1197L12.0281 11.4184L11.5281 11.7886L11.7249 12.9574L11.1411 12.0905L10.5153 12.5678L10.7346 11.4834L10.1089 10.5548L10.8895 10.8827Z" fill="#212061"/>
<path fill-rule="evenodd" clip-rule="evenodd" d="M6.75098 12.6327L7.87024 12.912L8.12828 11.8373L8.45728 13.0646L9.45397 13.3503L8.70242 13.9185L9.04756 15.1652L8.22504 14.2723L7.42834 14.899L7.69606 13.6749L6.75098 12.6327Z" fill="#212061"/>
<path fill-rule="evenodd" clip-rule="evenodd" d="M4.14487 14.451L4.69321 15.8926L6.04149 16.0225L5.0448 16.8244L5.56411 18.1264L4.39647 17.292L3.29656 18.1458L3.61911 16.6848L2.28052 15.6361L3.81265 15.7887L4.14487 14.451Z" fill="#212061"/>
<path fill-rule="evenodd" clip-rule="evenodd" d="M10.957 16.4997L11.1602 15.5581L11.3957 16.5679L11.9989 16.6166L11.5473 17.1717L11.7441 18.1295L11.2022 17.5354L10.5893 18.1425L10.799 17.1068L10.241 16.4542L10.957 16.4997Z" fill="#212061"/>
<path d="M49.8957 11.386H48.2087V24.399H49.8957V11.386Z" fill="white"/>
<path d="M121.115 11.386H119.428V24.399H121.115V11.386Z" fill="white"/>
<path fill-rule="evenodd" clip-rule="evenodd" d="M113.587 15.4963H115.019L115.132 16.6392C115.493 16.1392 116.464 15.1327 118.374 15.321V17.0873C118.374 17.0873 116.542 16.8567 115.271 17.9801V24.3989H113.584V15.4963H113.587Z" fill="white"/>
<path fill-rule="evenodd" clip-rule="evenodd" d="M109.716 15.4964H111.403V24.399H109.716V15.4964ZM111.781 12.7822C111.787 12.0386 111.342 11.5679 110.597 11.5679C109.852 11.5679 109.417 12.0224 109.417 12.7692C109.417 13.5159 109.881 13.9705 110.597 13.9705C111.313 13.9737 111.774 13.5257 111.781 12.7822Z" fill="white"/>
<path fill-rule="evenodd" clip-rule="evenodd" d="M123.289 15.4964H124.976V24.399H123.289V15.4964ZM125.354 12.7822C125.36 12.0386 124.915 11.5679 124.17 11.5679C123.425 11.5679 122.99 12.0224 122.99 12.7692C122.99 13.5159 123.454 13.9705 124.17 13.9705C124.886 13.9737 125.347 13.5257 125.354 12.7822Z" fill="white"/>
<path fill-rule="evenodd" clip-rule="evenodd" d="M35.4808 15.1587H37.0646C36.9291 12.7659 35.5873 11.9087 33.71 11.7107C32.5553 11.5905 31.2715 11.7951 30.3587 12.3503C29.4975 12.8762 28.9266 13.6847 28.8008 14.6685C28.7266 15.2561 28.7427 16.0094 29.0749 16.6847C29.5459 17.6425 30.4619 18.2204 31.5618 18.5451C31.5618 18.5451 34.0777 19.1782 34.4648 19.5061C34.8519 19.834 35.5905 20.1262 35.4454 21.3925C35.355 22.1782 34.9164 22.5775 34.4712 22.7951C33.5326 23.2561 31.7231 23.2886 30.8328 22.6392C30.3942 22.3178 30.0297 21.7886 29.8426 20.9282H28.2234C28.4718 23.1133 29.5168 24.1327 31.3522 24.4704C32.7875 24.7334 34.639 24.6685 35.8582 23.7594C36.3711 23.3795 36.7581 22.8762 36.9646 22.3146C37.1968 21.6782 37.2355 20.9509 37.1549 20.3535C36.9162 18.597 35.5454 17.9736 34.0681 17.5159C32.9294 17.162 31.2618 16.9185 30.7167 15.8146C30.4071 15.1912 30.4813 14.3243 30.9748 13.8113C31.4747 13.2951 32.4037 13.1717 33.081 13.1749C34.2842 13.1782 35.3228 13.5353 35.4808 15.1587Z" fill="white"/>
<path fill-rule="evenodd" clip-rule="evenodd" d="M46.4928 19.9216C46.4928 18.1229 46.0412 16.5385 44.6865 15.7788C43.4543 15.0872 41.5222 15.1619 40.2804 15.8015C38.9031 16.5125 38.3193 17.9022 38.2225 19.7625C38.0838 22.3697 39.2353 24.6879 42.3544 24.6035C45.4703 24.5158 46.4928 22.4898 46.4928 19.9216ZM44.7316 19.9281C44.7316 21.7073 44.2736 23.1846 42.377 23.2073C40.4772 23.2301 39.8933 21.5775 39.974 19.7723C40.0288 18.4833 40.3094 17.6002 41.0932 17.1099C41.7996 16.6651 43.0866 16.5905 43.7865 17.0677C44.5575 17.5905 44.7316 18.6814 44.7316 19.9281Z" fill="white"/>
<path fill-rule="evenodd" clip-rule="evenodd" d="M59.8241 19.9216C59.8241 18.1229 59.3725 16.5385 58.0178 15.7788C56.7856 15.0872 54.8535 15.1619 53.6117 15.8015C52.2344 16.5125 51.6506 17.9022 51.5538 19.7625C51.4151 22.3697 52.5666 24.6879 55.6857 24.6035C58.7983 24.5158 59.8241 22.4898 59.8241 19.9216ZM58.0597 19.9281C58.0597 21.7073 57.6017 23.1846 55.7051 23.2073C53.8052 23.2301 53.2214 21.5775 53.302 19.7723C53.3569 18.4833 53.6375 17.6002 54.4213 17.1099C55.1277 16.6651 56.4147 16.5905 57.1146 17.0677C57.8888 17.5905 58.0597 18.6814 58.0597 19.9281Z" fill="white"/>
<path fill-rule="evenodd" clip-rule="evenodd" d="M83.9315 19.9216C83.9315 18.1229 83.4799 16.5385 82.1252 15.7788C80.893 15.0872 78.9609 15.1619 77.7191 15.8015C76.3418 16.5125 75.758 17.9022 75.6612 19.7625C75.5225 22.3697 76.674 24.6879 79.7931 24.6035C82.9058 24.5158 83.9315 22.4898 83.9315 19.9216ZM82.1671 19.9281C82.1671 21.7073 81.7091 23.1846 79.8125 23.2073C77.9126 23.2301 77.3288 21.5775 77.4095 19.7723C77.4643 18.4833 77.7449 17.6002 78.5287 17.1099C79.2351 16.6651 80.5221 16.5905 81.222 17.0677C81.9962 17.5905 82.1671 18.6814 82.1671 19.9281Z" fill="white"/>
<path fill-rule="evenodd" clip-rule="evenodd" d="M66.8557 24.399V22.2984V18.9542C66.8557 18.4412 66.8106 18.0841 66.6493 17.7757C66.2848 17.0841 65.5204 16.8146 64.7301 16.8244C63.7431 16.8373 62.8496 17.5484 62.8496 18.9542V22.0776V24.3958H61.1433V18.4932C61.1433 16.3244 62.8045 15.2172 64.6333 15.1977C65.8848 15.1847 67.0235 15.5646 67.746 16.3341C68.4008 15.5906 69.4103 15.2107 70.4748 15.1977C72.5939 15.175 74.3873 16.2757 74.3873 18.4932V24.3958H72.7133V22.2951V18.951C72.7133 18.438 72.6552 18.0808 72.4907 17.7724C72.1262 17.0808 71.4037 16.7692 70.6167 16.8341C70.1167 16.8763 69.5039 17.0614 69.1233 17.4964C68.8427 17.8146 68.7201 18.2529 68.7201 18.951V24.3925C68.0976 24.399 67.4783 24.399 66.8557 24.399Z" fill="white"/>
<path fill-rule="evenodd" clip-rule="evenodd" d="M108.271 24.399L103.988 11.9218H101.811L97.6304 24.399H99.3786C99.7754 23.1718 100.169 21.9477 100.559 20.7237H105.185C105.585 21.9412 105.981 23.162 106.391 24.399H108.271ZM101.037 19.2464C101.63 17.4023 102.227 15.5549 102.853 13.701C103.507 15.6166 104.11 17.4412 104.704 19.2464H101.037Z" fill="white"/>
<path fill-rule="evenodd" clip-rule="evenodd" d="M140.859 15.334C140.095 15.2139 139.198 15.308 138.243 15.8016C136.866 16.5126 136.234 17.6587 136.137 19.6912C136.011 22.2983 137.198 24.6879 140.317 24.6035C142.552 24.5418 143.465 23.4509 143.801 21.8925H142.188C142.072 22.6392 141.807 23.1425 140.349 23.1587C138.892 23.1749 138.075 22.4996 137.911 20.3697C139.94 20.3697 141.756 20.3697 143.781 20.3697C144.014 17.7236 143.552 15.7529 140.859 15.334ZM137.924 19.0288C138.027 18.149 138.311 17.4639 138.937 17.071C139.73 16.571 140.578 16.6684 141.101 16.8925C141.843 17.2106 142.094 18.0808 142.127 19.0288H137.924Z" fill="white"/>
<path fill-rule="evenodd" clip-rule="evenodd" d="M150.177 17.9704H151.739C151.739 17.9704 151.7 17.386 151.371 16.7691C150.997 16.071 150.468 15.6814 149.758 15.4736C148.994 15.2529 148.039 15.2496 147.281 15.4412C146.704 15.5873 145.942 15.9184 145.507 16.6782C144.93 17.6879 145.03 19.0061 145.891 19.8145C146.636 20.5126 147.794 20.5873 148.745 20.821C149.442 20.9931 150.052 21.1327 150.158 21.8243C150.2 22.0938 150.2 22.4542 150 22.7009C149.552 23.2529 148.487 23.2853 147.833 23.2269C147.268 23.1782 146.558 22.9444 146.484 21.9152H144.833C145.184 24.4964 147.316 24.7464 149.236 24.5581C150.139 24.4704 150.681 24.1522 151.252 23.6068C151.981 22.9087 152.251 21.1068 151.226 20.1197C150.977 19.8795 150.616 19.7269 150.3 19.6035C149.461 19.2691 148.529 19.2171 147.755 18.9379C147.104 18.7042 146.729 18.2561 146.897 17.5386C147.004 17.0775 147.394 16.8568 147.797 16.7561C148.203 16.6555 148.723 16.6555 149.116 16.7236C149.707 16.8243 150.065 17.123 150.177 17.9704Z" fill="white"/>
<path fill-rule="evenodd" clip-rule="evenodd" d="M89.1118 15.2009C91.2309 15.1782 93.0243 16.2788 93.0243 18.4964V24.399H91.3503V22.2983V18.9542C91.3503 18.3016 91.2858 17.8568 90.931 17.4736C90.1407 16.6165 88.5247 16.623 87.7603 17.4996C87.4796 17.8178 87.3571 18.2561 87.3571 18.9542V24.3957H85.6282L85.6024 19.0516C85.5959 17.7041 85.9217 16.7301 86.6539 16.0613C87.2087 15.5613 88.0183 15.2139 89.1118 15.2009Z" fill="white"/>
<path fill-rule="evenodd" clip-rule="evenodd" d="M130.553 15.2009C132.673 15.1782 134.466 16.2788 134.466 18.4964V24.399H132.792V22.2983V18.9542C132.792 18.3016 132.727 17.8568 132.373 17.4736C131.582 16.6165 129.966 16.623 129.202 17.4996C128.921 17.8178 128.799 18.2561 128.799 18.9542V24.3957H127.07L127.044 19.0516C127.038 17.7041 127.363 16.7301 128.096 16.0613C128.65 15.5613 129.46 15.2139 130.553 15.2009Z" fill="white"/>
</svg>
